<svg width="20" height="19" viewBox="0 0 20 19" fill="none" xmlns="http://www.w3.org/2000/svg">
<rect width="20" height="18" rx="9" fill="#22C8A8"/>
<path d="M5.09808 15.6576L2.5 14C2.5 14 3.11603 15.0311 2.61603 15.9881C2.11603 16.9451 1 16.8711 1 16.8711C2.73205 17.9762 4.45374 16.5226 5.09808 15.6576Z" fill="#22C8A8" stroke="#22C8A8" stroke-width="0.2" stroke-linejoin="round"/>
<path d="M4.8666 7C4.97046 7 5.07433 7.00355 5.17819 7.01065C5.28465 7.01776 5.38072 7.03788 5.46641 7.07102C5.55209 7.10417 5.6209 7.15507 5.67283 7.22372C5.72736 7.29001 5.75463 7.38352 5.75463 7.50426C5.75463 7.62263 5.72736 7.71615 5.67283 7.7848C5.6209 7.85109 5.55209 7.9008 5.46641 7.93395C5.38072 7.96709 5.28465 7.9884 5.17819 7.99787C5.07433 8.00497 4.97046 8.00852 4.8666 8.00852H4.46933V11.1619C4.46933 11.2637 4.46543 11.3632 4.45764 11.4602C4.45245 11.5573 4.43168 11.6437 4.39533 11.7195C4.35897 11.7952 4.30055 11.8568 4.22006 11.9041C4.13957 11.9491 4.02532 11.9716 3.87731 11.9716C3.72931 11.9716 3.61506 11.9491 3.53457 11.9041C3.45407 11.8568 3.39565 11.7952 3.3593 11.7195C3.32295 11.6437 3.30088 11.5573 3.29309 11.4602C3.28789 11.3632 3.2853 11.2637 3.2853 11.1619V8.00852H2.88802C2.78416 8.00852 2.679 8.00497 2.57254 7.99787C2.46868 7.9884 2.3739 7.96709 2.28822 7.93395C2.20253 7.9008 2.13242 7.85109 2.0779 7.7848C2.02597 7.71615 2 7.62263 2 7.50426C2 7.38352 2.02597 7.29001 2.0779 7.22372C2.13242 7.15507 2.20253 7.10417 2.28822 7.07102C2.3739 7.03788 2.46868 7.01776 2.57254 7.01065C2.679 7.00355 2.78416 7 2.88802 7H4.8666Z" fill="#FEEFE4"/>
<path d="M7.32035 9.8267H8.55891L7.98247 7.9233H7.89679L7.32035 9.8267ZM9.76631 10.1747C9.7715 10.3357 9.77799 10.5002 9.78578 10.6683C9.79357 10.8364 9.79747 10.9986 9.79747 11.1548V11.2614C9.79747 11.3513 9.79357 11.4389 9.78578 11.5241C9.78059 11.607 9.76112 11.6828 9.72736 11.7514C9.69361 11.8177 9.64038 11.871 9.56767 11.9112C9.49497 11.9515 9.39241 11.9716 9.25998 11.9716C9.12496 11.9716 9.0211 11.9515 8.94839 11.9112C8.87569 11.871 8.82116 11.8177 8.78481 11.7514C8.75105 11.6851 8.73028 11.6094 8.72249 11.5241C8.7173 11.4389 8.7147 11.3513 8.7147 11.2614V10.7642H7.15677V11.2614C7.15677 11.3513 7.15287 11.4389 7.14508 11.5241C7.13989 11.6094 7.11912 11.6851 7.08277 11.7514C7.04901 11.8177 6.99578 11.871 6.92308 11.9112C6.85037 11.9515 6.74651 11.9716 6.61149 11.9716C6.47647 11.9716 6.37261 11.9515 6.2999 11.9112C6.2272 11.871 6.17397 11.8177 6.14021 11.7514C6.10646 11.6828 6.08698 11.607 6.08179 11.5241C6.0766 11.4389 6.074 11.3513 6.074 11.2614V11.1548C6.074 11.0814 6.074 11.0033 6.074 10.9205C6.0766 10.8376 6.0792 10.7536 6.08179 10.6683C6.08439 10.5831 6.08698 10.4991 6.08958 10.4162C6.09218 10.331 6.09477 10.2505 6.09737 10.1747C6.2272 9.76278 6.36352 9.34612 6.50633 8.92472C6.64914 8.50095 6.78546 8.08191 6.91529 7.66761C6.94125 7.58002 6.97241 7.49598 7.00876 7.41548C7.04512 7.33262 7.09315 7.2616 7.15287 7.20241C7.21259 7.14086 7.28919 7.09233 7.38267 7.05682C7.47614 7.01894 7.59559 7 7.74099 7H8.13048C8.27329 7 8.39143 7.01894 8.48491 7.05682C8.58098 7.09233 8.65888 7.14086 8.7186 7.20241C8.77832 7.2616 8.82506 7.33262 8.85881 7.41548C8.89516 7.49598 8.92762 7.58002 8.95618 7.66761L9.76631 10.1747Z" fill="#FEEFE4"/>
<path d="M10.779 7.81676C10.779 7.71496 10.7842 7.61553 10.7945 7.51847C10.8049 7.4214 10.8296 7.33499 10.8685 7.25923C10.9101 7.18111 10.9698 7.11837 11.0477 7.07102C11.1256 7.02367 11.2334 7 11.371 7C11.519 7 11.6345 7.02367 11.7176 7.07102C11.8007 7.11837 11.8617 7.18111 11.9007 7.25923C11.9396 7.33499 11.963 7.4214 11.9708 7.51847C11.9812 7.61553 11.9864 7.71496 11.9864 7.81676V10.9276H12.7498C12.8562 10.9276 12.9614 10.9323 13.0652 10.9418C13.1691 10.9512 13.2613 10.9737 13.3418 11.0092C13.4249 11.0447 13.4911 11.0968 13.5404 11.1655C13.5897 11.2341 13.6144 11.3277 13.6144 11.446C13.6144 11.5668 13.5897 11.6626 13.5404 11.7337C13.4911 11.8023 13.4249 11.8544 13.3418 11.8899C13.2613 11.9254 13.1691 11.9479 13.0652 11.9574C12.9614 11.9669 12.8562 11.9716 12.7498 11.9716H11.6436C11.506 11.9716 11.384 11.9669 11.2775 11.9574C11.171 11.9479 11.0802 11.9254 11.0049 11.8899C10.9322 11.8544 10.8763 11.8023 10.8374 11.7337C10.7984 11.6626 10.779 11.5668 10.779 11.446V7.81676Z" fill="#FEEFE4"/>
<path d="M14.4012 7.80966C14.4012 7.70786 14.4064 7.60843 14.4167 7.51136C14.4271 7.4143 14.4518 7.32789 14.4908 7.25213C14.5297 7.17637 14.5881 7.116 14.666 7.07102C14.7439 7.02367 14.8504 7 14.9854 7C15.123 7 15.2321 7.02367 15.3126 7.07102C15.3931 7.116 15.4528 7.17637 15.4917 7.25213C15.5333 7.32789 15.5592 7.4143 15.5696 7.51136C15.58 7.60843 15.5852 7.70786 15.5852 7.80966V9.08807H16.0292C16.1149 8.88447 16.2006 8.68442 16.2863 8.48793C16.3226 8.40507 16.3603 8.31984 16.3992 8.23224C16.4382 8.14228 16.4758 8.05469 16.5122 7.96946C16.5511 7.88423 16.5875 7.80256 16.6212 7.72443C16.6576 7.64394 16.6913 7.57292 16.7225 7.51136C16.7537 7.44508 16.7861 7.38116 16.8199 7.3196C16.8562 7.25805 16.8978 7.2036 16.9445 7.15625C16.9912 7.1089 17.0432 7.07102 17.1003 7.04261C17.16 7.0142 17.2288 7 17.3067 7C17.382 7 17.456 7.01065 17.5287 7.03196C17.6014 7.05327 17.6663 7.08523 17.7235 7.12784C17.7806 7.17045 17.826 7.22254 17.8598 7.28409C17.8961 7.34564 17.9143 7.41667 17.9143 7.49716C17.9143 7.55871 17.9026 7.6321 17.8793 7.71733C17.8585 7.80019 17.8286 7.88305 17.7897 7.96591L17.0886 9.47869C17.2236 9.52367 17.3431 9.59706 17.4469 9.69886C17.4911 9.74148 17.5339 9.79356 17.5755 9.85511C17.6196 9.9143 17.6586 9.98414 17.6923 10.0646C17.7261 10.1451 17.7533 10.2375 17.7741 10.3416C17.7949 10.4434 17.8053 10.5582 17.8053 10.6861V11.1903C17.8053 11.2164 17.8156 11.2377 17.8364 11.2543C17.8572 11.2708 17.878 11.2898 17.8987 11.3111C17.9507 11.3655 17.9805 11.4129 17.9883 11.4531C17.9961 11.4934 18 11.5265 18 11.5526C18 11.6378 17.9818 11.7088 17.9455 11.7656C17.9117 11.8224 17.865 11.8686 17.8053 11.9041C17.7481 11.9396 17.6806 11.9645 17.6027 11.9787C17.5274 11.9929 17.4495 12 17.369 12C17.2834 12 17.1964 11.9882 17.1081 11.9645C17.0198 11.9408 16.9393 11.9053 16.8666 11.858C16.7939 11.8082 16.7342 11.7467 16.6874 11.6733C16.6433 11.5999 16.6212 11.5147 16.6212 11.4176V10.6861C16.6212 10.5843 16.6134 10.4896 16.5979 10.402C16.5823 10.312 16.5524 10.2351 16.5083 10.1712C16.4641 10.1049 16.4031 10.054 16.3252 10.0185C16.2473 9.98059 16.1461 9.96165 16.0214 9.96165H15.5852V11.1548C15.5852 11.259 15.58 11.3596 15.5696 11.4567C15.5592 11.5537 15.5333 11.6413 15.4917 11.7195C15.4528 11.7952 15.3931 11.8568 15.3126 11.9041C15.2321 11.9491 15.123 11.9716 14.9854 11.9716C14.8504 11.9716 14.7439 11.9491 14.666 11.9041C14.5881 11.8568 14.5297 11.7952 14.4908 11.7195C14.4518 11.6413 14.4271 11.5537 14.4167 11.4567C14.4064 11.3596 14.4012 11.259 14.4012 11.1548V7.80966Z" fill="#FEEFE4"/>
</svg>
